<?xml version="1.0" encoding="UTF-8" standalone="no"?><!DOCTYPE svg PUBLIC "-//W3C//DTD SVG 1.1//EN" "http://www.w3.org/Graphics/SVG/1.1/DTD/svg11.dtd"><svg width="100%" height="100%" viewBox="0 0 3840 1082" version="1.1" xmlns="http://www.w3.org/2000/svg" xmlns:xlink="http://www.w3.org/1999/xlink" xml:space="preserve" xmlns:serif="http://www.serif.com/" style="fill-rule:evenodd;clip-rule:evenodd;stroke-linecap:round;stroke-linejoin:round;stroke-miterlimit:1.5;"><rect x="0" y="0" width="3840" height="1082" style="fill:#fff;"/><g><path d="M1131.75,375.829l-69.679,469.735c-19.228,129.626 -140.079,219.256 -269.706,200.028l-469.735,-69.679c-129.627,-19.228 -219.256,-140.08 -200.028,-269.706l69.678,-469.735c19.229,-129.627 140.08,-219.257 269.707,-200.028l469.735,69.678c129.627,19.229 219.256,140.08 200.028,269.707Z" style="fill:#cdcdcd;"/><g><g><g><path d="M1065.52,321.845l-0,438.346c-0,120.964 -98.208,219.172 -219.173,219.172l-438.346,0c-120.965,0 -219.173,-98.208 -219.173,-219.172l0,-438.346c0,-120.965 98.208,-219.173 219.173,-219.173l438.346,0c120.965,0 219.173,98.208 219.173,219.173Z" style="fill:#fff;"/><g><g><g><g><path d="M356.107,938.527l72.491,-0.105c0,-0 -0.265,-19.252 0.178,-24.907c0.245,-3.129 0.714,-6.73 2.478,-9.023c1.765,-2.294 5.062,-4.372 8.11,-4.739c6.074,-0.732 28.333,0.348 28.333,0.348l0.272,-52.007c-0,-8.565 -6.954,-15.519 -15.519,-15.519l-96.343,0c-8.565,0 -15.519,6.954 -15.519,15.519l-0,74.914c-0,8.565 6.954,15.519 15.519,15.519Z" style="fill:none;stroke:#cdcdcd;stroke-width:8.02px;"/><path d="M465.165,897.47c1.581,-1.547 4.121,-1.52 5.669,0.061c1.547,1.581 1.52,4.122 -0.061,5.669l-39.024,38.192c-1.581,1.547 -4.121,1.52 -5.669,-0.061c-1.547,-1.582 -1.52,-4.122 0.062,-5.669l39.023,-38.192Z" style="fill:#cdcdcd;"/></g></g><path d="M419.043,819.628c-0.016,1.38 -1.148,2.487 -2.528,2.472c-1.38,-0.016 -2.487,-1.149 -2.472,-2.528l0.864,-76.163c0.009,-0.812 0.412,-1.568 1.079,-2.029l50.562,-34.913c1.136,-0.784 2.694,-0.498 3.478,0.637c0.784,1.135 0.499,2.694 -0.637,3.478l-49.497,34.177l-0.849,74.869Z" style="fill:#cdcdcd;"/><g><ellipse cx="284.019" cy="696.998" rx="56.569" ry="15.135" style="fill:none;stroke:#cdcdcd;stroke-width:7.95px;"/><path d="M340.588,733.24c-0.063,8.339 -25.387,15.104 -56.569,15.104c-31.221,0 -56.569,-6.782 -56.569,-15.135c-0,-0.031 0,-0.062 0.001,-0.093c0,-0.015 0.001,-0.031 0.001,-0.046c0.001,-0.008 0.001,-0.016 0.001,-0.023" style="fill:none;stroke:#cdcdcd;stroke-width:7.95px;"/><path d="M340.588,769.451c-0.063,8.34 -25.387,15.105 -56.569,15.105c-31.221,-0 -56.569,-6.782 -56.569,-15.136c-0,-0.031 0,-0.062 0.001,-0.093c0,-0.015 0.001,-0.03 0.001,-0.046c0.001,-0.008 0.001,-0.015 0.001,-0.023" style="fill:none;stroke:#cdcdcd;stroke-width:7.95px;"/><path d="M340.588,805.663c-0.063,8.339 -25.386,15.104 -56.569,15.104c-31.221,-0 -56.569,-6.782 -56.569,-15.135" style="fill:none;stroke:#cdcdcd;stroke-width:7.95px;"/><path d="M223.477,696.998c0,-2.193 1.78,-3.973 3.973,-3.973c2.193,0 3.973,1.78 3.973,3.973l-0,108.634c-0,2.192 -1.78,3.972 -3.973,3.972c-2.193,0 -3.973,-1.78 -3.973,-3.972l0,-108.634Z" style="fill:#cdcdcd;"/><path d="M336.615,696.998c0,-2.193 1.78,-3.973 3.973,-3.973c2.193,0 3.973,1.78 3.973,3.973l-0,108.634c-0,2.192 -1.78,3.972 -3.973,3.972c-2.193,0 -3.973,-1.78 -3.973,-3.972l0,-108.634Z" style="fill:#cdcdcd;"/></g><path d="M286.519,670.09c-0.02,1.379 -1.156,2.484 -2.535,2.464c-1.38,-0.019 -2.484,-1.155 -2.465,-2.535l2.363,-167.824c0.014,-0.941 0.553,-1.794 1.397,-2.209l99.867,-49.087c1.239,-0.609 2.738,-0.098 3.347,1.141c0.608,1.238 0.097,2.737 -1.141,3.346l-98.492,48.411l-2.341,166.293Z" style="fill:#cdcdcd;"/><g><g><circle cx="903.5" cy="271.439" r="4.332" style="fill:#cdcdcd;"/><circle cx="913.9" cy="271.439" r="4.332" style="fill:#cdcdcd;"/><circle cx="924.301" cy="271.439" r="4.332" style="fill:#cdcdcd;"/><path d="M1039.84,267.376l-0,107.843c-0,4.115 -3.342,7.456 -7.457,7.456l-134.518,0c-4.116,0 -7.457,-3.341 -7.457,-7.456l0,-107.843c0,-4.116 3.341,-7.457 7.457,-7.457l134.518,0c4.115,0 7.457,3.341 7.457,7.457Z" style="fill:none;stroke:#cdcdcd;stroke-width:8.02px;"/><rect x="890.313" y="278.715" width="149.431" height="4.224" style="fill:#cdcdcd;"/><path d="M948.913,296.354l42.689,39.016l-25.172,-0.44l-17.035,19.041l-0.482,-57.617Z" style="fill:#cdcdcd;"/><path d="M977.523,360.369c-1.203,-2.464 -0.701,-2.646 -14.531,-31.042" style="fill:#cdcdcd;"/><path d="M981.125,358.61c0.971,1.988 0.145,4.391 -1.843,5.361c-1.988,0.971 -4.39,0.145 -5.361,-1.843c-1.203,-2.464 -0.701,-2.647 -14.533,-31.046c-0.969,-1.989 -0.141,-4.39 1.848,-5.359c1.989,-0.969 4.391,-0.141 5.359,1.848c13.829,28.393 13.327,28.576 14.53,31.039Z" style="fill:#cdcdcd;"/></g></g><path d="M876.123,319.157c1.38,0.009 2.492,1.137 2.483,2.517c-0.01,1.38 -1.138,2.492 -2.517,2.483c-0,-0 -51.108,-0.349 -51.108,-0.349l-69.297,130.507c-0.647,1.218 -2.161,1.682 -3.38,1.035c-1.219,-0.647 -1.683,-2.161 -1.036,-3.38l70.008,-131.845c0.436,-0.822 1.294,-1.334 2.225,-1.328l52.622,0.36Z" style="fill:#cdcdcd;"/><g><g><path d="M890.313,146.623l-0.105,72.491c-0,0 -19.252,-0.265 -24.907,0.178c-3.128,0.245 -6.73,0.714 -9.023,2.478c-2.294,1.765 -4.372,5.062 -4.739,8.11c-0.732,6.074 0.348,28.334 0.348,28.334l-52.007,0.271c-8.565,0 -15.519,-6.954 -15.519,-15.519l0,-96.343c0,-8.565 6.954,-15.519 15.519,-15.519l74.914,0c8.565,0 15.519,6.954 15.519,15.519Z" style="fill:none;stroke:#cdcdcd;stroke-width:8.02px;"/><path d="M854.986,261.289c-1.547,1.581 -4.087,1.608 -5.669,0.061c-1.581,-1.548 -1.608,-4.088 -0.061,-5.669l38.192,-39.023c1.547,-1.581 4.088,-1.609 5.669,-0.061c1.581,1.547 1.608,4.087 0.061,5.669l-38.192,39.023Z" style="fill:#cdcdcd;"/></g></g><path d="M772.347,192.595c1.38,0.005 2.496,1.129 2.491,2.509c-0.005,1.38 -1.129,2.496 -2.509,2.491l-80.149,-0.295l-123.849,265.537c-0.583,1.251 -2.072,1.792 -3.322,1.209c-1.251,-0.583 -1.793,-2.072 -1.209,-3.322l124.525,-266.986c0.412,-0.884 1.3,-1.447 2.274,-1.443l81.748,0.3Z" style="fill:#cdcdcd;"/></g></g></g></g><g><path d="M500.534,862.46c11.252,0.489 28.61,-2.615 38.188,-4.546c-1.315,-43.107 1.803,-106.952 5.22,-132.508c0.888,-6.638 2.03,-11.127 2.904,-12.891l2.203,-2.947l2.592,-1.593c9.91,-3.847 19.16,0.316 26.393,8.194c8.619,9.386 13.975,23.881 14.453,26.838c10.216,63.068 13.669,70.565 -2.488,102.006c12.682,1.231 16.654,-0.957 33.147,-1.478c0.444,-1.896 1.055,-4.784 1.326,-7.324c0.841,-7.892 1.095,-18.482 1.017,-30.048c-0.252,-37.217 -3.979,-84.25 -4.007,-87.034c-0.043,-4.415 3.505,-8.035 7.92,-8.079c4.416,-0.044 8.036,3.505 8.08,7.92c0.037,3.743 6.63,86.841 2.78,120.013c-0.874,7.533 -2.575,12.973 -4.404,15.639l-1.994,2.268l-2.008,1.392l-2.141,0.84l-2.382,0.324c-25.909,0.334 -25.754,4.214 -51.141,-0.24c-2.538,-0.446 -4.707,-2.087 -5.825,-4.409c-1.118,-2.322 -1.049,-5.04 0.185,-7.303c20.143,-36.917 16.34,-38.962 6.141,-101.929c-0.334,-2.067 -4.418,-12.013 -10.444,-18.574c-1.744,-1.9 -3.601,-3.757 -5.719,-4.303c-3.813,20.68 -7.577,96.124 -5.571,141.309c0.173,3.894 -2.486,7.346 -6.295,8.173c-4.149,0.9 -36.734,7.796 -52.721,5.975c-4.641,-0.528 -7.677,-1.776 -9.578,-3.111l-2.872,-2.854l-1.068,-1.912l-0.656,-2.065l-0.18,-3.525l1.096,-4.14c1.296,-3.073 4.3,-7.05 8.191,-11.619c6.862,-8.058 8.806,-12.069 8.179,-25.593c-0.762,-16.433 -4.769,-44.46 -9.378,-100.63c-0.361,-4.401 2.918,-8.267 7.319,-8.628c4.4,-0.361 8.266,2.919 8.627,7.319c4.635,56.486 8.649,84.673 9.415,101.198c0.901,19.436 -2.119,25.128 -11.981,36.708c-0.819,0.963 -1.704,2.089 -2.523,3.167Z"/><path d="M781.103,651.946c0.127,-4.414 3.813,-7.894 8.227,-7.767c4.413,0.126 7.894,3.813 7.767,8.226c-0.878,30.537 6.073,28.96 26.574,63.593c4.644,7.846 15.014,17.418 23.689,29.362c9.947,13.695 17.742,30.144 15.55,49.813c-1.432,12.846 -5.222,22.291 -8.936,31.313c-4.685,11.379 -9.262,21.968 -6.153,40.368c0.735,4.354 -2.202,8.485 -6.556,9.221c-4.353,0.736 -8.485,-2.202 -9.221,-6.555c-3.184,-18.848 0.035,-31.052 4.537,-42.69c3.833,-9.907 8.852,-19.3 10.427,-33.43c1.708,-15.317 -4.847,-27.972 -12.594,-38.637c-9.018,-12.417 -19.684,-22.459 -24.512,-30.615c-23.121,-39.061 -29.788,-37.761 -28.799,-72.202Z"/><path d="M843.12,877.115c-4.412,-0.174 -7.853,-3.897 -7.679,-8.309c0.174,-4.411 3.897,-7.852 8.309,-7.678c16.805,0.662 18.676,2.019 31.948,0.743c9.171,-60.064 12.997,-59.731 16.552,-78.044c8.992,-46.319 -7.928,-76.975 -11.178,-82.818c-2.146,-3.858 -0.755,-8.733 3.103,-10.88c3.859,-2.146 8.734,-0.755 10.88,3.103c3.676,6.609 23.073,41.25 12.902,93.644c-3.641,18.757 -7.594,17.785 -17.352,83.448c-0.529,3.562 -3.373,6.331 -6.947,6.766c-20.354,2.474 -20.19,0.827 -40.538,0.025Z"/><path d="M772.355,844.177c2.296,0.217 5.345,0.435 7.836,0.37c6.246,-0.161 13.16,-0.78 18.747,-1.237c21.029,-96.163 19.92,-97.789 21.201,-107.031c0.605,-4.374 4.648,-7.433 9.022,-6.827c4.373,0.606 7.432,4.649 6.826,9.022c-1.32,9.529 -0.104,11.054 -22.698,114.097c-0.771,3.518 -3.798,6.087 -7.395,6.276c-7.025,0.368 -20.068,1.874 -29.93,1.728c-5.304,-0.079 -9.851,-0.714 -12.781,-1.844l-3.943,-2.262l-2.519,-2.988l-1.225,-3.494l0.046,-3.554c2.886,-16.092 11.703,-36.674 16.261,-57.934c4.056,-18.915 4.751,-38.505 -7.908,-55.26c-2.662,-3.522 -1.963,-8.544 1.56,-11.205c3.523,-2.662 8.544,-1.963 11.206,1.56c15.671,20.741 15.808,44.843 10.787,68.259c-4.051,18.894 -11.529,37.237 -15.093,52.324Z"/><path d="M861.774,499.226c-2.797,3.416 -7.841,3.92 -11.258,1.123c-3.416,-2.797 -3.92,-7.842 -1.123,-11.258c23.91,-29.208 61.514,-25.206 75.731,-5.1c9.422,13.324 10.189,34.795 -11.796,59.604c-2.928,3.305 -7.989,3.61 -11.293,0.682c-3.305,-2.929 -3.61,-7.989 -0.682,-11.293c14.898,-16.811 17.091,-30.727 10.707,-39.755c-9.486,-13.415 -34.333,-13.491 -50.286,5.997Z"/><path d="M417.898,302.367c2.541,1.044 4.479,3.371 4.89,6.286c0.655,4.648 -0.413,8.285 -2.224,11.103c-2.615,4.068 -7.093,6.544 -11.811,7.282c-5.299,0.829 -10.584,-0.727 -13.387,-3.048c-0.795,-0.658 -1.465,-1.325 -2.03,-1.989l-1.673,-2.44l-1.107,-2.86l-0.358,-3.022l0.817,-4.331c0.589,-1.577 1.517,-3.143 2.741,-4.613c3.952,-4.748 11.825,-8.575 12.815,-9.031c4.01,-1.848 8.766,-0.093 10.614,3.918c0.411,0.891 0.643,1.82 0.713,2.745Z"/><path d="M730.716,708.048c1.132,-1.004 8.601,-7.524 13.792,-9.421c1.557,-0.569 3.07,-0.895 4.466,-0.985l3.807,0.334l3.405,1.501l2.785,2.631c2.546,3.391 4.088,6.107 5.362,8.348c0.764,1.344 1.193,2.46 2.211,3.284c1.117,0.906 2.795,1.402 5.544,2.075c3.226,0.79 6.143,-1.662 9.2,-3.967c5.257,-3.965 10.266,-8.987 14.739,-11.957c7.312,-4.856 14.003,-5.221 19.573,-0.462c23.159,19.784 51.944,7.27 64.632,-8.982c4.146,-5.311 9.165,-12.418 12.128,-20.141c3.676,-9.583 3.791,-20.304 -7.893,-28.606c-2.457,-1.746 -3.724,-4.725 -3.278,-7.706c0.446,-2.981 2.53,-5.458 5.391,-6.408c1.247,-0.414 5.08,-1.066 8.894,-3.141c2.63,-1.432 5.39,-3.69 6.278,-7.678c2.789,-12.532 -5.312,-17.654 -6.665,-18.449c-2.215,-1.301 -3.671,-3.587 -3.913,-6.144c-0.242,-2.558 0.759,-5.076 2.691,-6.77c3.107,-2.724 6.595,-5.547 9.414,-8.797c2.908,-3.352 5.107,-7.24 3.7,-12.462c-2.385,-8.857 -11.721,-11.741 -13.095,-12.121c-4.255,-1.178 -6.754,-5.589 -5.576,-9.844c1.178,-4.255 5.589,-6.754 9.844,-5.576c2.595,0.718 19.772,6.651 24.277,23.38c2.57,9.544 0.174,17.198 -4.415,23.733c-1.89,2.692 -4.209,5.17 -6.654,7.5c4.773,5.528 9.187,14.752 6.01,29.026c-2.014,9.049 -7.982,14.464 -13.736,17.746c16.115,20.989 0.952,47.263 -10.791,62.304c-16.991,21.763 -55.412,37.734 -86.59,12.176c-0.609,0.323 -1.478,0.807 -2.089,1.244c-2.033,1.454 -4.169,3.334 -6.398,5.263c-4.754,4.116 -9.889,8.351 -15.084,10.696c-4.734,2.137 -9.574,2.865 -14.4,1.684c-10.794,-2.644 -13.576,-5.883 -16.641,-10.905c-0.957,-1.568 -1.908,-3.47 -3.441,-5.837c-0.461,0.263 -0.925,0.544 -1.286,0.794c-3.336,2.31 -6.152,5.104 -6.246,5.175c-10.389,7.893 -18.641,7.667 -24.71,5.211c-6.761,-2.737 -11.161,-9.262 -13.389,-13.562c-0.816,0.539 -1.751,1.188 -2.474,1.78c-2.886,2.361 -5.963,5.211 -9.135,7.663c-6.364,4.918 -13.281,7.954 -19.852,6.894c-5.48,-0.885 -11.63,-4.556 -16.972,-14.47c-2.616,2.38 -6.193,5.524 -8.414,7.014c-13.304,8.924 -23.363,5.952 -31.443,0.628c-2.931,-1.931 -5.556,-4.255 -7.936,-6.345c-0.533,-0.467 -1.211,-1.014 -1.847,-1.512c-6.297,8.915 -11.938,11.947 -17.092,12.359c-3.694,0.295 -7.563,-0.701 -11.873,-3.095c-4.08,-2.266 -8.902,-6.032 -15.303,-10.36c-1.012,1.799 -2.453,4.283 -3.858,6.429c-4.601,7.027 -8.826,9.671 -18.737,10.332c-6.705,0.448 -17.172,-0.265 -35.33,-0.24c-4.415,0.006 -8.005,-3.574 -8.011,-7.989c-0.006,-4.415 3.574,-8.005 7.989,-8.011c17.621,-0.025 27.779,0.71 34.287,0.276c3.307,-0.221 4.88,-0.787 6.416,-3.133c3.169,-4.84 4.88,-8.842 6.826,-10.969l3.16,-2.546l2.19,-0.952l2.408,-0.48c2.642,-0.236 6.254,0.418 11.112,3.684c5.262,3.538 9.4,6.724 12.936,8.964c1.788,1.133 3.077,2.256 4.514,2.141c0.713,-0.057 1.208,-0.729 1.967,-1.492c1.331,-1.339 2.712,-3.165 4.259,-5.512c1.299,-1.97 2.659,-3.345 3.975,-4.315l2.815,-1.576l3.218,-0.79l2.524,0.011l2.248,0.451c1.604,0.468 3.289,1.292 5.008,2.469c2.369,1.622 4.978,4.135 7.924,6.573c2.533,2.097 5.347,4.383 8.986,4.503c2.301,0.077 4.819,-0.821 7.755,-2.791c2.467,-1.655 5.119,-4.585 7.638,-6.849c2.898,-2.606 5.816,-4.501 8.226,-5.228l2.172,-0.446l2.569,0.02l3.606,1.146l2.892,2.245l1.471,1.959l1.013,1.991c1.591,3.779 3.158,6.533 4.837,8.391c0.799,0.883 1.507,1.519 2.327,1.701c1.418,0.313 2.744,-0.528 4.149,-1.35c2.876,-1.68 5.668,-4.139 8.353,-6.46c5.168,-4.468 10.23,-8.315 14.414,-9.395l3.696,-0.463l4.113,0.728l3.724,2.083l2.784,2.926c0.049,0.066 0.929,2.297 2.512,5.162c1.028,1.86 2.54,4.64 5.389,5.196c2.18,0.425 4.707,-0.658 8.022,-3.134Z"/><path d="M584.517,514.947c-1.087,4.28 -5.444,6.871 -9.724,5.783c-4.279,-1.087 -6.87,-5.444 -5.783,-9.724c0.309,-1.213 2.398,-13.321 7.5,-23.996c4.175,-8.738 10.475,-16.261 18.517,-18.912c8.752,-2.885 15.646,-2.177 21.034,-0.014c4.752,1.907 8.364,5.112 11.051,8.471c3.985,-5.056 7.584,-8.821 10.891,-11.485c4.572,-3.684 8.845,-5.537 12.87,-6.14c7.082,-1.062 14.034,1.903 21.578,8.475c3.095,-4.057 6.102,-7.399 9.089,-9.878c4.168,-3.457 8.435,-5.433 12.816,-5.978c4.577,-0.569 9.4,0.346 14.56,3.412c4.04,2.402 8.478,6.353 13.356,12.223c1.152,-1.293 2.415,-2.579 3.786,-3.745c6.441,-5.479 14.731,-8.661 24.767,-4.041c10.142,4.669 16.397,12.131 20.144,18.479c4.247,-3.667 8.079,-6.313 11.605,-8.003c5.05,-2.42 9.714,-3.128 14.203,-2.443c4.333,0.661 8.599,2.662 12.903,6.304c3.63,3.07 7.413,7.481 11.54,13.279c3.564,-2.321 7.136,-4.273 10.662,-5.409c5.173,-1.667 10.32,-1.794 15.413,0.216c5.907,2.33 12.268,8.072 18.064,20.125c4.268,-0.777 7.6,-1.476 10.467,-1.783c3.867,-0.415 7.133,-0.22 10.389,0.784c4.681,1.444 9.558,4.75 16.476,12.117c7.347,7.824 7.489,14.443 5.176,22.156c-1.023,3.41 -2.752,7.145 -4.267,11.646c-1.409,4.185 -5.95,6.439 -10.134,5.03c-4.185,-1.409 -6.438,-5.95 -5.03,-10.135c1.138,-3.38 2.398,-6.327 3.391,-9.03c1.157,-3.148 2.042,-5.688 -0.8,-8.714c-4.161,-4.431 -6.712,-6.912 -9.528,-7.78c-1.726,-0.533 -3.464,-0.278 -5.692,0.064c-3.629,0.558 -8.057,1.562 -14.065,2.479c-3.68,0.561 -7.26,-1.489 -8.639,-4.946c-4.019,-10.082 -7.439,-15.457 -11.679,-17.13c-2.109,-0.832 -4.215,-0.157 -6.362,0.798c-3.726,1.658 -7.431,4.422 -11.155,7.173c-1.776,1.312 -4.016,1.832 -6.189,1.436c-2.173,-0.397 -4.086,-1.674 -5.284,-3.529c-4.176,-6.463 -7.814,-11.483 -11.315,-14.99c-2.354,-2.358 -4.424,-3.988 -6.755,-4.344c-2.138,-0.326 -4.276,0.575 -6.787,2.098c-3.982,2.416 -8.37,6.358 -13.57,11.727c-1.981,2.045 -4.898,2.883 -7.662,2.202c-2.764,-0.682 -4.957,-2.78 -5.76,-5.511c-0.581,-1.978 -4.05,-14.124 -16.451,-19.832c-3.156,-1.453 -5.683,-0.029 -7.708,1.694c-3.875,3.296 -6.596,7.842 -8.315,9.814c-1.619,1.857 -4.004,2.864 -6.465,2.731c-2.46,-0.134 -4.722,-1.394 -6.13,-3.416c-4.863,-6.982 -9.059,-11.848 -12.946,-14.797c-2.314,-1.756 -4.263,-2.777 -6.238,-2.531c-2.202,0.274 -4.113,1.838 -6.208,3.898c-3.227,3.172 -6.438,7.577 -9.917,12.813c-1.362,2.049 -3.592,3.358 -6.045,3.548c-2.454,0.19 -4.859,-0.76 -6.52,-2.575c-3.459,-3.779 -6.514,-6.848 -9.526,-8.8c-1.653,-1.073 -3.182,-1.811 -4.87,-1.558c-2.274,0.341 -4.496,1.966 -7.194,4.525c-3.897,3.698 -8.198,9.186 -13.253,16.716c-1.72,2.561 -4.758,3.905 -7.81,3.455c-3.051,-0.45 -5.572,-2.615 -6.479,-5.563c-0.359,-1.169 -2.203,-8.463 -8.408,-10.953c-2.58,-1.036 -5.874,-1.021 -10.065,0.36c-4.247,1.4 -6.886,6.002 -9.091,10.616c-4.465,9.341 -6.159,19.976 -6.429,21.038Z"/><path d="M415.627,256.974c0.126,-0.279 0.372,-0.843 0.484,-1.241c0.411,-1.46 0.611,-3.172 0.725,-5.031c0.363,-5.942 -0.242,-13.097 -0.536,-19.567c-0.344,-7.586 -0.089,-14.401 1.435,-18.546c0.323,-0.879 0.696,-1.682 1.108,-2.407l1.747,-2.417l1.627,-1.484l1.986,-1.212c7.54,-3.621 15.203,-0.831 22.269,7.821c4.937,6.045 10.023,15.332 15.925,23.845c4.741,6.838 9.856,13.368 16.542,15.669c6.87,2.363 11.14,5.909 13.863,9.812c4.037,5.786 4.717,12.687 4.03,19.264c-0.277,2.653 -0.829,6.229 -1.225,8.656c9.794,3.25 15.376,7.981 18.547,12.954c5.557,8.715 4.052,19.178 1.203,28.24c-0.725,2.305 -1.619,5.32 -2.222,7.379c8.559,3.869 13.706,8.089 16.513,13.16c2.181,3.942 3.149,8.513 2.76,14.211c-0.302,4.444 -1.512,9.792 -3.531,16.395c3.178,0.589 5.416,1.415 7.548,2.908c2.573,1.802 5.118,4.697 8.635,10.121c5.777,8.907 5.414,18.396 2.517,26.73c-1.598,4.597 -4.418,9.294 -6.9,12.913c7.974,6.328 11.429,12.623 12.409,18.673c0.806,4.976 -0.021,10.04 -2.145,15.303c-0.368,0.91 -0.778,1.83 -1.225,2.761c3.702,-0.043 7.612,0.537 11.455,2.174c9.142,3.894 18.858,13.753 23.446,37.395c0.842,4.334 -1.994,8.536 -6.329,9.377c-4.334,0.842 -8.536,-1.994 -9.378,-6.329c-3.044,-15.689 -7.943,-23.139 -14.01,-25.723c-3.83,-1.632 -7.773,-1.034 -10.912,-0.141c-4.226,1.202 -7.354,3.089 -8.2,3.442c-3.23,1.345 -6.96,0.435 -9.208,-2.247c-2.247,-2.682 -2.491,-6.513 -0.601,-9.459c3.461,-5.394 6.796,-10.279 9.069,-14.897c1.576,-3.201 2.723,-6.139 2.244,-9.097c-0.703,-4.337 -4.64,-8.002 -12.165,-12.539c-1.841,-1.11 -3.158,-2.915 -3.654,-5.007c-0.495,-2.092 -0.128,-4.296 1.02,-6.114c0.439,-0.695 5.179,-5.556 8.487,-12.232c2.35,-4.746 4.247,-10.74 0.656,-16.278c-1.906,-2.939 -2.994,-4.744 -4.389,-5.72c-0.763,-0.534 -1.643,-0.511 -2.849,-0.649c-1.839,-0.21 -4.072,-0.354 -6.92,-0.618c-2.45,-0.228 -4.658,-1.57 -5.989,-3.64c-1.33,-2.069 -1.635,-4.636 -0.825,-6.959c2.78,-7.978 4.732,-14.195 5.506,-19.22c0.5,-3.247 0.608,-5.746 -0.522,-7.786c-1.819,-3.288 -5.913,-5.131 -12.067,-7.584l-1.995,-1.022l-1.853,-1.491l-1.492,-1.868l-1.004,-2.019c-1.15,-3.05 -0.777,-7.946 1.087,-13.711c1.062,-3.283 2.507,-7.108 3.254,-11.048c0.515,-2.712 0.778,-5.507 -0.32,-8.06c-1.619,-3.761 -5.941,-6.391 -13.932,-8.439l-2.436,-0.94l-2.263,-1.624l-1.704,-2.092l-1.03,-2.158c-0.787,-2.233 -0.916,-5.515 -0.301,-9.437c0.398,-2.54 1.072,-5.558 1.365,-8.692c0.258,-2.762 0.402,-5.726 -1.329,-8.134c-1.144,-1.592 -3.078,-2.796 -5.895,-3.765c-6.847,-2.356 -12.929,-7.284 -18.282,-13.546c-6.748,-7.895 -12.389,-17.974 -17.642,-25.835c-1.892,-2.831 -3.693,-5.335 -5.529,-7.149c-0.036,0.302 -0.064,0.597 -0.079,0.87c-0.243,4.374 0.153,9.87 0.438,15.403c0.485,9.411 0.455,18.887 -1.8,24.848c-1.666,4.406 -4.404,7.464 -7.994,9.138c-20.559,9.585 -28.636,17.752 -36.709,25.815c-9.098,9.085 -18.186,18.06 -41.318,28.413c-6.215,2.781 -7.014,10.118 -4.615,17.291c4.897,14.639 23.029,28.785 52.364,25.222c10.832,-1.315 10.567,-1.181 21.629,-2.416c3.243,-0.363 6.382,1.281 7.93,4.154c9.714,18.022 4.069,31.451 -3.686,43.623c-2.738,4.298 -5.754,8.392 -7.997,12.549c-1.59,2.947 -2.839,5.877 -2.639,9.07c0.293,4.675 3.583,9.395 10.649,15.341c3.009,2.532 3.731,6.876 1.704,10.246c-4.991,8.294 -8.37,14.483 -10.162,19.434c-1.107,3.059 -1.655,5.298 -0.934,7.304c1.254,3.493 4.944,5.956 10.039,9.746c3.148,2.343 4.133,6.624 2.323,10.106c-3.856,7.424 -6.418,13.189 -7.798,17.862c-0.98,3.319 -1.373,5.83 -0.858,7.951c0.428,1.764 1.568,3.093 3.019,4.49c2.436,2.343 5.659,4.615 9.443,7.397c2.998,2.204 4.081,6.184 2.612,9.603c-3.174,7.39 -5.708,13.1 -7.133,17.938c-0.986,3.346 -1.453,6.068 -0.659,8.738c1.286,4.327 5.157,8.218 11.727,13.829c2.073,1.771 3.101,4.476 2.729,7.177c-0.991,7.178 -3.027,14.755 0.987,21.758c2.669,4.659 7.975,8.782 17.207,12.698c3.557,1.508 5.527,5.342 4.683,9.112c-0.313,1.402 -1.763,7.756 -0.893,14.813c0.737,5.989 3.231,12.7 10.746,16.27c24.474,11.625 22.448,14.24 35.858,38.249c2.153,3.855 0.771,8.732 -3.084,10.885c-3.854,2.153 -8.732,0.772 -10.885,-3.083c-10.928,-19.564 -8.81,-22.126 -28.754,-31.599c-13.451,-6.389 -18.441,-18.046 -19.761,-28.766c-0.641,-5.198 -0.379,-10.118 0.065,-13.851c-9.981,-5.15 -15.722,-10.94 -19.064,-16.772c-5.114,-8.923 -4.679,-18.403 -3.524,-27.642c-7.663,-7.04 -11.676,-12.807 -13.374,-18.518c-1.616,-5.433 -1.359,-11.011 0.648,-17.82c1.174,-3.986 3.001,-8.523 5.312,-13.967c-7.259,-5.705 -11.862,-10.602 -13.454,-17.167c-1.625,-6.697 -0.14,-15.9 7.047,-31.02c-5.31,-4.497 -8.663,-8.555 -10.263,-13.009c-1.487,-4.142 -1.727,-8.734 -0.22,-14.447c1.365,-5.179 4.391,-11.661 9.352,-20.316c-8.407,-8.523 -11.208,-16.199 -11.345,-23.088c-0.158,-7.994 3.542,-15.437 8.394,-22.871c5.675,-8.698 13.849,-17.497 9.921,-29.863c-5.536,0.595 -7.227,0.738 -15.608,1.756c-46.486,5.645 -70.539,-24.517 -71.487,-46.671c-0.498,-11.632 4.719,-21.607 15.273,-26.33c20.461,-9.158 28.5,-17.094 36.547,-25.131c9.011,-8.999 18.034,-18.103 40.798,-28.781Z"/></g></g></g><g><g><g><rect x="1258.27" y="234.431" width="60.163" height="381.973"/><rect x="1258.27" y="551.738" width="211.143" height="64.667"/></g><g><rect x="1492.75" y="234.431" width="60.163" height="381.973"/><rect x="1492.75" y="551.738" width="211.143" height="64.667"/></g><g><path d="M1970.38,234.431l-171.825,381.974l-71.34,-0l170.619,-381.974l72.546,0Z"/><path d="M1897.84,234.431l171.71,381.974l71.34,-0l-170.504,-381.974l-72.546,0Z"/><path d="M1950.78,486.024l29.392,61.695l-155.717,0.541l27.994,-62.232l98.331,-0.004Z"/></g><g><rect x="2164.22" y="234.431" width="65.566" height="381.973"/><rect x="2481.78" y="234.431" width="65.566" height="381.973"/><path d="M2545.88,234.431l-190.096,299.855l-36.137,-56.565l162.137,-243.29l64.096,0Z"/><path d="M2164.22,234.431l191.566,299.855l33.591,-52.987l-159.833,-246.868l-65.324,0Z"/></g><g><path d="M2813.84,234.431l-171.825,381.974l-71.34,-0l170.618,-381.974l72.547,0Z"/><path d="M2741.3,234.431l171.71,381.974l71.34,-0l-170.503,-381.974l-72.547,0Z"/><path d="M2794.24,486.024l29.391,61.695l-155.717,0.541l27.994,-62.232l98.332,-0.004Z"/></g><g><path d="M3205.34,497.211l81.274,119.194l-76.603,-0l-66.506,-104.355l61.835,-14.839Z"/><path d="M3007.67,234.431l135.196,0c76.611,0 138.81,62.199 138.81,138.81c-0,76.611 -62.199,138.809 -138.81,138.809c-27.548,0 -44.233,-2.994 -44.233,-2.994l23.354,-63.366c-0,0 -2.4,0.381 26.144,0.381c44.425,0 75.228,-28.405 75.228,-72.83c-0,-44.425 -35.732,-79.838 -80.158,-79.838c-14.017,-0 -135.531,0.131 -135.531,0.131l0,-59.103Z"/><rect x="3007.67" y="234.431" width="64.557" height="381.973"/></g><g><path d="M3549.5,234.431l-171.825,381.974l-71.34,-0l170.619,-381.974l72.546,0Z"/><path d="M3476.95,234.431l171.71,381.974l71.34,-0l-170.504,-381.974l-72.546,0Z"/><path d="M3529.89,486.024l29.392,61.695l-155.717,0.541l27.994,-62.232l98.331,-0.004Z"/></g></g><g transform="matrix(186.132,0,0,186.132,2851.94,811.122)"></g><text x="1249.71px" y="811.122px" style="font-family:'ProximaNova-Medium', 'Proxima Nova';font-weight:500;font-size:186.132px;">Chat with your data</text></g></svg>